<?xml version="1.0" standalone="no"?>
<!DOCTYPE svg PUBLIC "-//W3C//DTD SVG 20010904//EN"
 "http://www.w3.org/TR/2001/REC-SVG-20010904/DTD/svg10.dtd">
<svg version="1.0" xmlns="http://www.w3.org/2000/svg"
 width="261.000000pt" height="261.000000pt" viewBox="0 0 261.000000 261.000000"
 preserveAspectRatio="xMidYMid meet">
<metadata>
Created by potrace 1.14, written by Peter Selinger 2001-2017
</metadata>
<g transform="translate(0.000000,261.000000) scale(0.100000,-0.100000)"
fill="#000000" stroke="none">
<path d="M10 1305 l0 -815 820 0 820 0 -1 118 c0 64 0 135 0 157 l1 41 143 -1
142 0 2 -140 c1 -77 2 -148 2 -157 1 -17 24 -18 336 -18 l335 0 0 815 0 815
-981 0 -980 0 1 -132 c1 -73 1 -145 1 -160 l-1 -28 -130 0 -130 0 0 160 0 160
-190 0 -190 0 0 -815z"/>
</g>
</svg>
